<svg width="24" height="24" viewBox="0 0 24 24" fill="none" xmlns="http://www.w3.org/2000/svg">
<path d="M12 2C11.7348 2 11.4804 2.10536 11.2929 2.29289C11.1054 2.48043 11 2.73478 11 3C11 3.26522 11.1054 3.51957 11.2929 3.70711C11.4804 3.89464 11.7348 4 12 4C12.2652 4 12.5196 3.89464 12.7071 3.70711C12.8946 3.51957 13 3.26522 13 3C13 2.73478 12.8946 2.48043 12.7071 2.29289C12.5196 2.10536 12.2652 2 12 2ZM22.5 11C22.3674 11 22.2402 11.0527 22.1464 11.1464C22.0527 11.2402 22 11.3674 22 11.5C22 11.6326 22.0527 11.7598 22.1464 11.8536C22.2402 11.9473 22.3674 12 22.5 12C22.6326 12 22.7598 11.9473 22.8536 11.8536C22.9473 11.7598 23 11.6326 23 11.5C23 11.3674 22.9473 11.2402 22.8536 11.1464C22.7598 11.0527 22.6326 11 22.5 11ZM1.5 11C1.36739 11 1.24021 11.0527 1.14645 11.1464C1.05268 11.2402 1 11.3674 1 11.5C1 11.6326 1.05268 11.7598 1.14645 11.8536C1.24021 11.9473 1.36739 12 1.5 12C1.63261 12 1.75979 11.9473 1.85355 11.8536C1.94732 11.7598 2 11.6326 2 11.5C2 11.3674 1.94732 11.2402 1.85355 11.1464C1.75979 11.0527 1.63261 11 1.5 11Z" fill="#5D748A"/>
<path d="M12.71 2.2959L12 3.0999L11.29 2.2959L1.203 11.0979L1.5 11.9999H4V19.9999C4 20.5519 4.448 20.9999 5 20.9999H9C9.552 20.9999 10 20.5519 10 19.9999V13.9999H14V19.9999C14 20.5519 14.448 20.9999 15 20.9999H19C19.552 20.9999 20 20.5519 20 19.9999V11.9999H22.5L22.797 11.0979L12.71 2.2959Z" fill="#5D748A"/>
</svg>
