<svg width="224" height="56" viewBox="0 0 224 56" fill="none" xmlns="http://www.w3.org/2000/svg">
<path d="M106.54 19.556C106.54 20.2307 106.415 20.854 106.166 21.426C105.931 21.998 105.572 22.4967 105.088 22.922C104.604 23.3327 103.988 23.6627 103.24 23.912C102.507 24.1467 101.649 24.264 100.666 24.264C100.138 24.264 99.588 24.22 99.016 24.132C98.444 24.044 97.894 23.9193 97.366 23.758C96.8527 23.5967 96.3907 23.3987 95.98 23.164C95.584 22.9293 95.2833 22.658 95.078 22.35C94.9167 22.1153 94.836 21.866 94.836 21.602C94.836 21.1767 94.9827 20.832 95.276 20.568C95.584 20.2893 95.9287 20.15 96.31 20.15C96.4567 20.15 96.6033 20.172 96.75 20.216C96.8967 20.2453 97.0287 20.304 97.146 20.392C97.6447 20.7293 98.202 21.008 98.818 21.228C99.434 21.4333 100.101 21.536 100.82 21.536C101.245 21.536 101.619 21.492 101.942 21.404C102.265 21.316 102.529 21.1987 102.734 21.052C102.954 20.8907 103.115 20.7147 103.218 20.524C103.321 20.3187 103.372 20.1133 103.372 19.908C103.372 19.5853 103.247 19.3213 102.998 19.116C102.763 18.9107 102.448 18.742 102.052 18.61C101.656 18.4633 101.201 18.3387 100.688 18.236C100.189 18.1187 99.676 17.9867 99.148 17.84C98.62 17.6933 98.0993 17.5173 97.586 17.312C97.0873 17.1067 96.64 16.8427 96.244 16.52C95.848 16.1973 95.5253 15.8013 95.276 15.332C95.0413 14.848 94.924 14.2613 94.924 13.572C94.924 12.956 95.0487 12.384 95.298 11.856C95.562 11.3133 95.9287 10.8367 96.398 10.426C96.882 10.0153 97.4687 9.69267 98.158 9.458C98.8473 9.22333 99.6247 9.106 100.49 9.106C100.901 9.106 101.355 9.14267 101.854 9.216C102.367 9.27467 102.859 9.37733 103.328 9.524C103.797 9.656 104.23 9.82467 104.626 10.03C105.022 10.2353 105.323 10.47 105.528 10.734C105.704 10.954 105.792 11.2033 105.792 11.482C105.792 11.9073 105.623 12.252 105.286 12.516C104.963 12.7653 104.611 12.89 104.23 12.89C103.951 12.89 103.687 12.8167 103.438 12.67C102.925 12.3767 102.389 12.164 101.832 12.032C101.289 11.9 100.747 11.834 100.204 11.834C99.5293 11.834 99.0087 11.9733 98.642 12.252C98.29 12.516 98.114 12.868 98.114 13.308C98.114 13.6013 98.2313 13.8433 98.466 14.034C98.7153 14.21 99.038 14.364 99.434 14.496C99.83 14.628 100.277 14.7527 100.776 14.87C101.289 14.9727 101.803 15.0973 102.316 15.244C102.844 15.3907 103.357 15.574 103.856 15.794C104.369 15.9993 104.824 16.2707 105.22 16.608C105.616 16.9307 105.931 17.334 106.166 17.818C106.415 18.2873 106.54 18.8667 106.54 19.556ZM119.357 18.676C119.357 19.556 119.24 20.348 119.005 21.052C118.771 21.7413 118.441 22.328 118.015 22.812C117.605 23.2813 117.106 23.6407 116.519 23.89C115.947 24.1393 115.324 24.264 114.649 24.264C114.019 24.264 113.417 24.132 112.845 23.868C112.288 23.604 111.797 23.1933 111.371 22.636V26.816C111.371 27.1973 111.232 27.52 110.953 27.784C110.689 28.048 110.359 28.18 109.963 28.18C109.582 28.18 109.252 28.048 108.973 27.784C108.709 27.52 108.577 27.1973 108.577 26.816V14.606C108.577 14.2247 108.709 13.902 108.973 13.638C109.252 13.374 109.597 13.242 110.007 13.242C110.389 13.242 110.711 13.374 110.975 13.638C111.239 13.902 111.371 14.2247 111.371 14.606V14.716C111.782 14.2027 112.266 13.8067 112.823 13.528C113.381 13.2493 113.989 13.11 114.649 13.11C115.324 13.11 115.947 13.2347 116.519 13.484C117.106 13.7333 117.605 14.0927 118.015 14.562C118.441 15.0313 118.771 15.618 119.005 16.322C119.24 17.0113 119.357 17.796 119.357 18.676ZM116.453 18.676C116.453 18.2213 116.387 17.8033 116.255 17.422C116.123 17.0407 115.94 16.718 115.705 16.454C115.471 16.1753 115.185 15.9627 114.847 15.816C114.525 15.6693 114.165 15.596 113.769 15.596C113.315 15.596 112.86 15.7133 112.405 15.948C111.951 16.1827 111.606 16.4687 111.371 16.806V20.568C111.606 20.9053 111.951 21.1913 112.405 21.426C112.86 21.6607 113.315 21.778 113.769 21.778C114.165 21.778 114.525 21.7047 114.847 21.558C115.185 21.4113 115.471 21.1987 115.705 20.92C115.94 20.6413 116.123 20.3187 116.255 19.952C116.387 19.5707 116.453 19.1453 116.453 18.676ZM131.964 18.676C131.964 19.4387 131.832 20.1573 131.568 20.832C131.318 21.5067 130.952 22.1007 130.468 22.614C129.984 23.1127 129.39 23.516 128.686 23.824C127.996 24.1173 127.212 24.264 126.332 24.264C125.452 24.264 124.667 24.1173 123.978 23.824C123.288 23.516 122.702 23.1127 122.218 22.614C121.734 22.1007 121.36 21.5067 121.096 20.832C120.846 20.1573 120.722 19.4387 120.722 18.676C120.722 17.928 120.846 17.2167 121.096 16.542C121.36 15.8673 121.734 15.2807 122.218 14.782C122.702 14.2687 123.288 13.8653 123.978 13.572C124.667 13.264 125.452 13.11 126.332 13.11C127.212 13.11 127.996 13.264 128.686 13.572C129.39 13.8653 129.984 14.2687 130.468 14.782C130.952 15.2807 131.318 15.8673 131.568 16.542C131.832 17.2167 131.964 17.928 131.964 18.676ZM129.06 18.676C129.06 18.2653 128.994 17.8767 128.862 17.51C128.744 17.1287 128.568 16.7987 128.334 16.52C128.114 16.2413 127.835 16.0213 127.498 15.86C127.16 15.684 126.772 15.596 126.332 15.596C125.892 15.596 125.503 15.684 125.166 15.86C124.843 16.0213 124.564 16.2413 124.33 16.52C124.095 16.7987 123.919 17.1287 123.802 17.51C123.684 17.8767 123.626 18.2653 123.626 18.676C123.626 19.1013 123.684 19.5047 123.802 19.886C123.919 20.2527 124.095 20.5753 124.33 20.854C124.564 21.1327 124.843 21.36 125.166 21.536C125.503 21.6973 125.892 21.778 126.332 21.778C126.772 21.778 127.16 21.6973 127.498 21.536C127.835 21.36 128.114 21.1327 128.334 20.854C128.568 20.5753 128.744 20.2527 128.862 19.886C128.994 19.5047 129.06 19.1013 129.06 18.676ZM140.35 14.43C140.35 14.8553 140.218 15.1853 139.954 15.42C139.705 15.6547 139.39 15.8013 139.008 15.86C138.583 15.9187 138.172 16.036 137.776 16.212C137.395 16.388 137.08 16.6447 136.83 16.982V22.746C136.83 23.1273 136.698 23.4573 136.434 23.736C136.17 24 135.848 24.132 135.466 24.132H135.422C135.041 24.132 134.711 24 134.432 23.736C134.168 23.4573 134.036 23.1273 134.036 22.746V14.606C134.036 14.2247 134.168 13.902 134.432 13.638C134.711 13.374 135.056 13.242 135.466 13.242C135.848 13.242 136.17 13.374 136.434 13.638C136.698 13.902 136.83 14.2247 136.83 14.606V14.826C136.962 14.65 137.102 14.474 137.248 14.298C137.41 14.1073 137.586 13.9387 137.776 13.792C137.967 13.6453 138.172 13.528 138.392 13.44C138.612 13.3373 138.854 13.286 139.118 13.286C139.529 13.286 139.837 13.396 140.042 13.616C140.248 13.836 140.35 14.1073 140.35 14.43ZM147.772 22.988C147.772 23.164 147.735 23.3327 147.662 23.494C147.603 23.6407 147.493 23.7727 147.332 23.89C147.171 24.0073 146.943 24.0953 146.65 24.154C146.357 24.2273 145.983 24.264 145.528 24.264C144.545 24.264 143.797 24.022 143.284 23.538C142.771 23.0393 142.514 22.3133 142.514 21.36V15.816H141.832C141.495 15.816 141.209 15.6987 140.974 15.464C140.739 15.2147 140.622 14.914 140.622 14.562C140.622 14.2393 140.739 13.9607 140.974 13.726C141.209 13.4913 141.495 13.374 141.832 13.374H142.514V11.724C142.514 11.3427 142.646 11.02 142.91 10.756C143.189 10.4773 143.533 10.338 143.944 10.338C144.325 10.338 144.648 10.4773 144.912 10.756C145.191 11.02 145.33 11.3427 145.33 11.724V13.374H146.43C146.753 13.374 147.031 13.4987 147.266 13.748C147.501 13.9827 147.618 14.2687 147.618 14.606C147.618 14.9433 147.501 15.2293 147.266 15.464C147.031 15.6987 146.753 15.816 146.43 15.816H145.33V20.612C145.33 21.0373 145.433 21.338 145.638 21.514C145.858 21.69 146.078 21.778 146.298 21.778C146.327 21.778 146.364 21.778 146.408 21.778C146.467 21.778 146.511 21.778 146.54 21.778C146.936 21.778 147.237 21.8953 147.442 22.13C147.662 22.3647 147.772 22.6507 147.772 22.988ZM167.325 20.04C167.325 20.5973 167.229 21.118 167.039 21.602C166.863 22.0713 166.591 22.4893 166.225 22.856C165.873 23.208 165.433 23.4867 164.905 23.692C164.377 23.8973 163.761 24 163.057 24H156.853C156.369 24 155.951 23.8313 155.599 23.494C155.261 23.142 155.093 22.724 155.093 22.24V11.086C155.093 10.602 155.261 10.1913 155.599 9.854C155.951 9.502 156.369 9.326 156.853 9.326H162.815C163.519 9.326 164.135 9.42867 164.663 9.634C165.191 9.83933 165.631 10.118 165.983 10.47C166.335 10.8073 166.599 11.2033 166.775 11.658C166.951 12.1127 167.039 12.582 167.039 13.066C167.039 13.5353 166.973 13.9607 166.841 14.342C166.709 14.7233 166.525 15.0607 166.291 15.354C166.056 15.6327 165.785 15.8673 165.477 16.058C165.183 16.234 164.861 16.3587 164.509 16.432C164.905 16.4907 165.271 16.63 165.609 16.85C165.946 17.0553 166.239 17.3193 166.489 17.642C166.753 17.95 166.958 18.3167 167.105 18.742C167.251 19.1527 167.325 19.5853 167.325 20.04ZM163.849 13.616C163.849 13.1467 163.695 12.7653 163.387 12.472C163.079 12.164 162.661 12.01 162.133 12.01H158.217V15.2H162.133C162.661 15.2 163.079 15.0533 163.387 14.76C163.695 14.4667 163.849 14.0853 163.849 13.616ZM164.135 19.6C164.135 19.3653 164.091 19.1453 164.003 18.94C163.929 18.7347 163.812 18.5587 163.651 18.412C163.489 18.2507 163.291 18.126 163.057 18.038C162.822 17.9353 162.551 17.884 162.243 17.884H158.217V21.294H162.243C162.844 21.294 163.306 21.1473 163.629 20.854C163.966 20.546 164.135 20.128 164.135 19.6ZM180.175 18.676C180.175 19.4387 180.043 20.1573 179.779 20.832C179.529 21.5067 179.163 22.1007 178.679 22.614C178.195 23.1127 177.601 23.516 176.897 23.824C176.207 24.1173 175.423 24.264 174.543 24.264C173.663 24.264 172.878 24.1173 172.189 23.824C171.499 23.516 170.913 23.1127 170.429 22.614C169.945 22.1007 169.571 21.5067 169.307 20.832C169.057 20.1573 168.933 19.4387 168.933 18.676C168.933 17.928 169.057 17.2167 169.307 16.542C169.571 15.8673 169.945 15.2807 170.429 14.782C170.913 14.2687 171.499 13.8653 172.189 13.572C172.878 13.264 173.663 13.11 174.543 13.11C175.423 13.11 176.207 13.264 176.897 13.572C177.601 13.8653 178.195 14.2687 178.679 14.782C179.163 15.2807 179.529 15.8673 179.779 16.542C180.043 17.2167 180.175 17.928 180.175 18.676ZM177.271 18.676C177.271 18.2653 177.205 17.8767 177.073 17.51C176.955 17.1287 176.779 16.7987 176.545 16.52C176.325 16.2413 176.046 16.0213 175.709 15.86C175.371 15.684 174.983 15.596 174.543 15.596C174.103 15.596 173.714 15.684 173.377 15.86C173.054 16.0213 172.775 16.2413 172.541 16.52C172.306 16.7987 172.13 17.1287 172.013 17.51C171.895 17.8767 171.837 18.2653 171.837 18.676C171.837 19.1013 171.895 19.5047 172.013 19.886C172.13 20.2527 172.306 20.5753 172.541 20.854C172.775 21.1327 173.054 21.36 173.377 21.536C173.714 21.6973 174.103 21.778 174.543 21.778C174.983 21.778 175.371 21.6973 175.709 21.536C176.046 21.36 176.325 21.1327 176.545 20.854C176.779 20.5753 176.955 20.2527 177.073 19.886C177.205 19.5047 177.271 19.1013 177.271 18.676ZM185.041 22.746C185.041 23.1273 184.902 23.4573 184.623 23.736C184.359 24 184.029 24.132 183.633 24.132C183.252 24.132 182.922 24 182.643 23.736C182.379 23.4573 182.247 23.1273 182.247 22.746V10.558C182.247 10.1767 182.379 9.854 182.643 9.59C182.922 9.326 183.267 9.194 183.677 9.194C184.059 9.194 184.381 9.326 184.645 9.59C184.909 9.854 185.041 10.1767 185.041 10.558V22.746ZM196.986 22.746C196.986 23.1273 196.854 23.4573 196.59 23.736C196.326 24 196.003 24.132 195.622 24.132C195.622 24.132 195.585 24.132 195.512 24.132C195.438 24.132 195.402 24.132 195.402 24.132C195.064 24.132 194.778 24.0147 194.544 23.78C194.309 23.5307 194.192 23.2373 194.192 22.9C193.825 23.3253 193.348 23.6627 192.762 23.912C192.175 24.1467 191.53 24.264 190.826 24.264C190.4 24.264 189.968 24.1907 189.528 24.044C189.088 23.8973 188.692 23.6847 188.34 23.406C187.988 23.1127 187.694 22.746 187.46 22.306C187.24 21.866 187.13 21.3453 187.13 20.744C187.13 20.128 187.24 19.6 187.46 19.16C187.694 18.72 187.988 18.368 188.34 18.104C188.692 17.8253 189.088 17.6273 189.528 17.51C189.968 17.378 190.4 17.312 190.826 17.312C191.53 17.312 192.175 17.422 192.762 17.642C193.363 17.862 193.84 18.1847 194.192 18.61V17.18C194.192 16.6373 193.979 16.2047 193.554 15.882C193.128 15.5593 192.564 15.398 191.86 15.398C191.434 15.398 191.024 15.4493 190.628 15.552C190.232 15.6547 189.85 15.8307 189.484 16.08C189.308 16.1827 189.139 16.234 188.978 16.234C188.728 16.234 188.486 16.1387 188.252 15.948C188.032 15.7573 187.922 15.4933 187.922 15.156C187.922 14.9653 187.973 14.782 188.076 14.606C188.237 14.342 188.494 14.1147 188.846 13.924C189.198 13.7333 189.579 13.5793 189.99 13.462C190.415 13.3447 190.833 13.2567 191.244 13.198C191.669 13.1393 192.036 13.11 192.344 13.11C192.945 13.11 193.524 13.176 194.082 13.308C194.639 13.44 195.13 13.6673 195.556 13.99C195.996 14.298 196.34 14.7087 196.59 15.222C196.854 15.7353 196.986 16.3733 196.986 17.136V22.746ZM194.192 21.448V20.128C193.957 19.82 193.634 19.5927 193.224 19.446C192.828 19.2847 192.402 19.204 191.948 19.204C191.39 19.204 190.914 19.3433 190.518 19.622C190.136 19.9007 189.946 20.2967 189.946 20.81C189.946 21.3087 190.136 21.6973 190.518 21.976C190.914 22.24 191.39 22.372 191.948 22.372C192.402 22.372 192.828 22.2987 193.224 22.152C193.634 21.9907 193.957 21.756 194.192 21.448ZM202.551 22.746C202.551 23.1273 202.412 23.4573 202.133 23.736C201.869 24 201.539 24.132 201.143 24.132C200.762 24.132 200.432 24 200.153 23.736C199.889 23.4573 199.757 23.1273 199.757 22.746V10.558C199.757 10.1767 199.889 9.854 200.153 9.59C200.432 9.326 200.776 9.194 201.187 9.194C201.568 9.194 201.891 9.326 202.155 9.59C202.419 9.854 202.551 10.1767 202.551 10.558V22.746ZM214.496 22.746C214.496 23.1273 214.364 23.4573 214.1 23.736C213.836 24 213.513 24.132 213.132 24.132C213.132 24.132 213.095 24.132 213.022 24.132C212.948 24.132 212.912 24.132 212.912 24.132C212.574 24.132 212.288 24.0147 212.054 23.78C211.819 23.5307 211.702 23.2373 211.702 22.9C211.335 23.3253 210.858 23.6627 210.272 23.912C209.685 24.1467 209.04 24.264 208.336 24.264C207.91 24.264 207.478 24.1907 207.038 24.044C206.598 23.8973 206.202 23.6847 205.85 23.406C205.498 23.1127 205.204 22.746 204.97 22.306C204.75 21.866 204.64 21.3453 204.64 20.744C204.64 20.128 204.75 19.6 204.97 19.16C205.204 18.72 205.498 18.368 205.85 18.104C206.202 17.8253 206.598 17.6273 207.038 17.51C207.478 17.378 207.91 17.312 208.336 17.312C209.04 17.312 209.685 17.422 210.272 17.642C210.873 17.862 211.35 18.1847 211.702 18.61V17.18C211.702 16.6373 211.489 16.2047 211.064 15.882C210.638 15.5593 210.074 15.398 209.37 15.398C208.944 15.398 208.534 15.4493 208.138 15.552C207.742 15.6547 207.36 15.8307 206.994 16.08C206.818 16.1827 206.649 16.234 206.488 16.234C206.238 16.234 205.996 16.1387 205.762 15.948C205.542 15.7573 205.432 15.4933 205.432 15.156C205.432 14.9653 205.483 14.782 205.586 14.606C205.747 14.342 206.004 14.1147 206.356 13.924C206.708 13.7333 207.089 13.5793 207.5 13.462C207.925 13.3447 208.343 13.2567 208.754 13.198C209.179 13.1393 209.546 13.11 209.854 13.11C210.455 13.11 211.034 13.176 211.592 13.308C212.149 13.44 212.64 13.6673 213.066 13.99C213.506 14.298 213.85 14.7087 214.1 15.222C214.364 15.7353 214.496 16.3733 214.496 17.136V22.746ZM211.702 21.448V20.128C211.467 19.82 211.144 19.5927 210.734 19.446C210.338 19.2847 209.912 19.204 209.458 19.204C208.9 19.204 208.424 19.3433 208.028 19.622C207.646 19.9007 207.456 20.2967 207.456 20.81C207.456 21.3087 207.646 21.6973 208.028 21.976C208.424 22.24 208.9 22.372 209.458 22.372C209.912 22.372 210.338 22.2987 210.734 22.152C211.144 21.9907 211.467 21.756 211.702 21.448ZM223.581 14.43C223.581 14.8553 223.449 15.1853 223.185 15.42C222.936 15.6547 222.62 15.8013 222.239 15.86C221.814 15.9187 221.403 16.036 221.007 16.212C220.626 16.388 220.31 16.6447 220.061 16.982V22.746C220.061 23.1273 219.929 23.4573 219.665 23.736C219.401 24 219.078 24.132 218.697 24.132H218.653C218.272 24.132 217.942 24 217.663 23.736C217.399 23.4573 217.267 23.1273 217.267 22.746V14.606C217.267 14.2247 217.399 13.902 217.663 13.638C217.942 13.374 218.286 13.242 218.697 13.242C219.078 13.242 219.401 13.374 219.665 13.638C219.929 13.902 220.061 14.2247 220.061 14.606V14.826C220.193 14.65 220.332 14.474 220.479 14.298C220.64 14.1073 220.816 13.9387 221.007 13.792C221.198 13.6453 221.403 13.528 221.623 13.44C221.843 13.3373 222.085 13.286 222.349 13.286C222.76 13.286 223.068 13.396 223.273 13.616C223.478 13.836 223.581 14.1073 223.581 14.43ZM108.586 46.24C108.586 46.4893 108.535 46.7313 108.432 46.966C108.344 47.186 108.212 47.384 108.036 47.56C107.86 47.736 107.655 47.8753 107.42 47.978C107.185 48.0807 106.929 48.132 106.65 48.132C106.357 48.132 106.071 48.066 105.792 47.934C105.513 47.7873 105.279 47.5893 105.088 47.34L98.576 38.43V46.592C98.576 47.0173 98.422 47.384 98.114 47.692C97.806 47.9853 97.432 48.132 96.992 48.132C96.5667 48.132 96.2 47.9853 95.892 47.692C95.5987 47.384 95.452 47.0173 95.452 46.592V35.196C95.452 34.932 95.5033 34.6827 95.606 34.448C95.7087 34.2133 95.848 34.0007 96.024 33.81C96.2147 33.6193 96.4347 33.4727 96.684 33.37C96.9333 33.2527 97.2047 33.194 97.498 33.194C97.8353 33.194 98.1507 33.2673 98.444 33.414C98.752 33.5607 99.0087 33.7733 99.214 34.052L105.462 42.544V34.734C105.462 34.3087 105.616 33.9493 105.924 33.656C106.232 33.348 106.606 33.194 107.046 33.194C107.471 33.194 107.831 33.348 108.124 33.656C108.432 33.9493 108.586 34.3087 108.586 34.734V46.24ZM112.799 32.908C113.269 32.908 113.665 33.0693 113.987 33.392C114.31 33.7 114.471 34.0887 114.471 34.558C114.471 35.0273 114.31 35.4233 113.987 35.746C113.665 36.0687 113.269 36.23 112.799 36.23C112.345 36.23 111.949 36.0687 111.611 35.746C111.289 35.4233 111.127 35.0273 111.127 34.558C111.127 34.0887 111.289 33.7 111.611 33.392C111.949 33.0693 112.345 32.908 112.799 32.908ZM114.207 46.746C114.207 47.1273 114.068 47.4573 113.789 47.736C113.525 48 113.195 48.132 112.799 48.132C112.418 48.132 112.088 48 111.809 47.736C111.545 47.4573 111.413 47.1273 111.413 46.746V38.606C111.413 38.2247 111.545 37.902 111.809 37.638C112.088 37.374 112.433 37.242 112.843 37.242C113.225 37.242 113.547 37.374 113.811 37.638C114.075 37.902 114.207 38.2247 114.207 38.606V46.746ZM127.076 47.274C127.076 48.286 126.9 49.1147 126.548 49.76C126.196 50.42 125.741 50.9333 125.184 51.3C124.626 51.6813 124.01 51.9453 123.336 52.092C122.661 52.2387 121.994 52.312 121.334 52.312C121.011 52.312 120.644 52.29 120.234 52.246C119.823 52.202 119.42 52.1287 119.024 52.026C118.628 51.9233 118.268 51.784 117.946 51.608C117.623 51.4467 117.381 51.2413 117.22 50.992C117.102 50.8013 117.044 50.596 117.044 50.376C117.044 50.0387 117.161 49.76 117.396 49.54C117.63 49.32 117.902 49.21 118.21 49.21C118.415 49.21 118.613 49.2613 118.804 49.364C119.185 49.5987 119.581 49.7673 119.992 49.87C120.417 49.9727 120.864 50.024 121.334 50.024C121.671 50.024 122.008 49.98 122.346 49.892C122.698 49.8187 123.013 49.6793 123.292 49.474C123.585 49.2687 123.82 48.99 123.996 48.638C124.172 48.3007 124.26 47.868 124.26 47.34V46.262C123.834 46.79 123.343 47.2007 122.786 47.494C122.243 47.7873 121.642 47.934 120.982 47.934C120.322 47.934 119.706 47.8167 119.134 47.582C118.562 47.3473 118.063 47.0027 117.638 46.548C117.227 46.0933 116.897 45.5287 116.648 44.854C116.413 44.1793 116.296 43.402 116.296 42.522C116.296 41.6567 116.413 40.8867 116.648 40.212C116.882 39.5373 117.205 38.9727 117.616 38.518C118.041 38.0487 118.54 37.6967 119.112 37.462C119.684 37.2273 120.307 37.11 120.982 37.11C121.627 37.11 122.228 37.2493 122.786 37.528C123.343 37.792 123.834 38.1953 124.26 38.738V38.628C124.26 38.2467 124.392 37.924 124.656 37.66C124.934 37.3813 125.279 37.242 125.69 37.242C126.071 37.242 126.394 37.3813 126.658 37.66C126.936 37.924 127.076 38.2467 127.076 38.628V47.274ZM124.26 44.238V40.806C124.142 40.63 123.996 40.4687 123.82 40.322C123.644 40.1753 123.446 40.0507 123.226 39.948C123.02 39.8307 122.8 39.7427 122.566 39.684C122.331 39.6253 122.096 39.596 121.862 39.596C121.466 39.596 121.099 39.662 120.762 39.794C120.439 39.926 120.16 40.124 119.926 40.388C119.691 40.6373 119.508 40.9453 119.376 41.312C119.244 41.664 119.178 42.0673 119.178 42.522C119.178 42.9767 119.244 43.3873 119.376 43.754C119.508 44.106 119.691 44.414 119.926 44.678C120.16 44.9273 120.439 45.118 120.762 45.25C121.099 45.382 121.466 45.448 121.862 45.448C122.096 45.448 122.331 45.4187 122.566 45.36C122.8 45.3013 123.02 45.2207 123.226 45.118C123.446 45.0007 123.644 44.8687 123.82 44.722C123.996 44.5753 124.142 44.414 124.26 44.238ZM140.407 42.676C140.407 43.4387 140.275 44.1573 140.011 44.832C139.762 45.5067 139.395 46.1007 138.911 46.614C138.427 47.1127 137.833 47.516 137.129 47.824C136.44 48.1173 135.655 48.264 134.775 48.264C133.895 48.264 133.11 48.1173 132.421 47.824C131.732 47.516 131.145 47.1127 130.661 46.614C130.177 46.1007 129.803 45.5067 129.539 44.832C129.29 44.1573 129.165 43.4387 129.165 42.676C129.165 41.928 129.29 41.2167 129.539 40.542C129.803 39.8673 130.177 39.2807 130.661 38.782C131.145 38.2687 131.732 37.8653 132.421 37.572C133.11 37.264 133.895 37.11 134.775 37.11C135.655 37.11 136.44 37.264 137.129 37.572C137.833 37.8653 138.427 38.2687 138.911 38.782C139.395 39.2807 139.762 39.8673 140.011 40.542C140.275 41.2167 140.407 41.928 140.407 42.676ZM137.503 42.676C137.503 42.2653 137.437 41.8767 137.305 41.51C137.188 41.1287 137.012 40.7987 136.777 40.52C136.557 40.2413 136.278 40.0213 135.941 39.86C135.604 39.684 135.215 39.596 134.775 39.596C134.335 39.596 133.946 39.684 133.609 39.86C133.286 40.0213 133.008 40.2413 132.773 40.52C132.538 40.7987 132.362 41.1287 132.245 41.51C132.128 41.8767 132.069 42.2653 132.069 42.676C132.069 43.1013 132.128 43.5047 132.245 43.886C132.362 44.2527 132.538 44.5753 132.773 44.854C133.008 45.1327 133.286 45.36 133.609 45.536C133.946 45.6973 134.335 45.778 134.775 45.778C135.215 45.778 135.604 45.6973 135.941 45.536C136.278 45.36 136.557 45.1327 136.777 44.854C137.012 44.5753 137.188 44.2527 137.305 43.886C137.437 43.5047 137.503 43.1013 137.503 42.676ZM152.468 46.746C152.468 47.1273 152.328 47.4573 152.05 47.736C151.786 48 151.456 48.132 151.06 48.132C150.678 48.132 150.348 48 150.07 47.736C149.806 47.4573 149.674 47.1273 149.674 46.746V41.532C149.674 41.1653 149.622 40.8573 149.52 40.608C149.432 40.3587 149.3 40.1607 149.124 40.014C148.962 39.8673 148.757 39.7647 148.508 39.706C148.273 39.6327 148.002 39.596 147.694 39.596C147.43 39.596 147.173 39.6327 146.924 39.706C146.689 39.7793 146.469 39.8747 146.264 39.992C146.058 40.1093 145.868 40.2413 145.692 40.388C145.53 40.5347 145.391 40.6887 145.274 40.85V46.746C145.274 47.1273 145.134 47.4573 144.856 47.736C144.592 48 144.262 48.132 143.866 48.132C143.484 48.132 143.154 48 142.876 47.736C142.612 47.4573 142.48 47.1273 142.48 46.746V34.558C142.48 34.1767 142.612 33.854 142.876 33.59C143.154 33.326 143.499 33.194 143.91 33.194C144.291 33.194 144.614 33.326 144.878 33.59C145.142 33.854 145.274 34.1767 145.274 34.558V38.76C145.45 38.5547 145.655 38.3567 145.89 38.166C146.139 37.9607 146.425 37.7847 146.748 37.638C147.07 37.4767 147.415 37.352 147.782 37.264C148.163 37.1613 148.574 37.11 149.014 37.11C150.187 37.11 151.052 37.4107 151.61 38.012C152.182 38.5987 152.468 39.4127 152.468 40.454V46.746ZM156.627 32.908C157.097 32.908 157.493 33.0693 157.815 33.392C158.138 33.7 158.299 34.0887 158.299 34.558C158.299 35.0273 158.138 35.4233 157.815 35.746C157.493 36.0687 157.097 36.23 156.627 36.23C156.173 36.23 155.777 36.0687 155.439 35.746C155.117 35.4233 154.955 35.0273 154.955 34.558C154.955 34.0887 155.117 33.7 155.439 33.392C155.777 33.0693 156.173 32.908 156.627 32.908ZM158.035 46.746C158.035 47.1273 157.896 47.4573 157.617 47.736C157.353 48 157.023 48.132 156.627 48.132C156.246 48.132 155.916 48 155.637 47.736C155.373 47.4573 155.241 47.1273 155.241 46.746V38.606C155.241 38.2247 155.373 37.902 155.637 37.638C155.916 37.374 156.261 37.242 156.671 37.242C157.053 37.242 157.375 37.374 157.639 37.638C157.903 37.902 158.035 38.2247 158.035 38.606V46.746ZM170.926 46.746C170.926 47.1273 170.787 47.4573 170.508 47.736C170.244 48 169.907 48.132 169.496 48.132C169.115 48.132 168.785 48 168.506 47.736C168.242 47.4573 168.11 47.1273 168.11 46.746V46.636C167.685 47.164 167.193 47.5673 166.636 47.846C166.079 48.1247 165.477 48.264 164.832 48.264C164.157 48.264 163.534 48.1393 162.962 47.89C162.39 47.6407 161.891 47.2813 161.466 46.812C161.055 46.3427 160.725 45.7633 160.476 45.074C160.241 44.37 160.124 43.578 160.124 42.698C160.124 41.8327 160.241 41.0553 160.476 40.366C160.711 39.6767 161.033 39.09 161.444 38.606C161.869 38.122 162.368 37.7553 162.94 37.506C163.527 37.242 164.157 37.11 164.832 37.11C165.463 37.11 166.057 37.2493 166.614 37.528C167.186 37.792 167.685 38.1953 168.11 38.738V34.58C168.11 34.1987 168.242 33.876 168.506 33.612C168.785 33.3333 169.129 33.194 169.54 33.194C169.921 33.194 170.244 33.3333 170.508 33.612C170.787 33.876 170.926 34.1987 170.926 34.58V46.746ZM168.11 44.568V40.806C167.875 40.454 167.531 40.168 167.076 39.948C166.621 39.7133 166.159 39.596 165.69 39.596C165.294 39.596 164.927 39.6693 164.59 39.816C164.267 39.9627 163.989 40.1753 163.754 40.454C163.519 40.7327 163.336 41.0627 163.204 41.444C163.072 41.8253 163.006 42.2433 163.006 42.698C163.006 43.1527 163.072 43.5707 163.204 43.952C163.336 44.3333 163.519 44.6633 163.754 44.942C163.989 45.206 164.267 45.4113 164.59 45.558C164.927 45.7047 165.294 45.778 165.69 45.778C166.159 45.778 166.621 45.668 167.076 45.448C167.531 45.2133 167.875 44.92 168.11 44.568ZM182.871 46.746C182.871 47.1273 182.739 47.4573 182.475 47.736C182.211 48 181.888 48.132 181.507 48.132C181.507 48.132 181.47 48.132 181.397 48.132C181.323 48.132 181.287 48.132 181.287 48.132C180.949 48.132 180.663 48.0147 180.429 47.78C180.194 47.5307 180.077 47.2373 180.077 46.9C179.71 47.3253 179.233 47.6627 178.647 47.912C178.06 48.1467 177.415 48.264 176.711 48.264C176.285 48.264 175.853 48.1907 175.413 48.044C174.973 47.8973 174.577 47.6847 174.225 47.406C173.873 47.1127 173.579 46.746 173.345 46.306C173.125 45.866 173.015 45.3453 173.015 44.744C173.015 44.128 173.125 43.6 173.345 43.16C173.579 42.72 173.873 42.368 174.225 42.104C174.577 41.8253 174.973 41.6273 175.413 41.51C175.853 41.378 176.285 41.312 176.711 41.312C177.415 41.312 178.06 41.422 178.647 41.642C179.248 41.862 179.725 42.1847 180.077 42.61V41.18C180.077 40.6373 179.864 40.2047 179.439 39.882C179.013 39.5593 178.449 39.398 177.745 39.398C177.319 39.398 176.909 39.4493 176.513 39.552C176.117 39.6547 175.735 39.8307 175.369 40.08C175.193 40.1827 175.024 40.234 174.863 40.234C174.613 40.234 174.371 40.1387 174.137 39.948C173.917 39.7573 173.807 39.4933 173.807 39.156C173.807 38.9653 173.858 38.782 173.961 38.606C174.122 38.342 174.379 38.1147 174.731 37.924C175.083 37.7333 175.464 37.5793 175.875 37.462C176.3 37.3447 176.718 37.2567 177.129 37.198C177.554 37.1393 177.921 37.11 178.229 37.11C178.83 37.11 179.409 37.176 179.967 37.308C180.524 37.44 181.015 37.6673 181.441 37.99C181.881 38.298 182.225 38.7087 182.475 39.222C182.739 39.7353 182.871 40.3733 182.871 41.136V46.746ZM180.077 45.448V44.128C179.842 43.82 179.519 43.5927 179.109 43.446C178.713 43.2847 178.287 43.204 177.833 43.204C177.275 43.204 176.799 43.3433 176.403 43.622C176.021 43.9007 175.831 44.2967 175.831 44.81C175.831 45.3087 176.021 45.6973 176.403 45.976C176.799 46.24 177.275 46.372 177.833 46.372C178.287 46.372 178.713 46.2987 179.109 46.152C179.519 45.9907 179.842 45.756 180.077 45.448Z" fill="#5D748A"/>
<path d="M37.5439 0.0737133C38.4729 -0.055975 39.4482 -0.0361249 40.3322 0.309269C41.8448 0.895513 43.0676 2.23607 43.4302 3.82806C43.7028 5.15934 43.5387 6.62165 42.7605 7.76105C41.6555 9.54492 39.3463 10.4382 37.3203 9.91943C35.6131 9.48802 34.1495 8.13688 33.6943 6.41918C33.0697 4.38783 33.9378 2.00713 35.715 0.847874C36.2788 0.498509 36.8836 0.186198 37.5439 0.0737133Z" fill="#64B431"/>
<path d="M24.4665 3.60971C24.7431 3.44072 25.0938 3.60707 25.3598 3.78175C26.5614 4.47254 27.5235 5.49284 28.5014 6.45756C29.92 7.86428 31.1891 9.41128 32.5906 10.8352C34.0648 12.1533 36.0366 12.938 38.0229 12.8957C40.2964 12.9076 42.4694 12.1136 44.5364 11.2388C47.6278 9.91415 50.5458 8.16865 53.7721 7.17085C54.3808 7.03851 55.114 6.74909 55.6671 7.23305C55.908 7.5431 55.6526 8.12498 55.3522 8.44391C54.4192 9.492 53.3936 10.4594 52.2847 11.3196C50.3221 12.8242 48.5634 14.5697 46.8033 16.302C45.3847 17.796 43.8589 19.2199 42.7208 20.9509C42.0525 22.2173 42.4813 23.7008 42.7684 25.0149C43.8404 29.0405 45.4575 32.9153 46.2687 37.0111C46.4751 38.1425 46.6829 39.2938 46.5598 40.4478C46.5347 40.6873 46.3905 41.0288 46.0953 40.9811C45.5964 40.9441 45.2682 40.4994 44.944 40.1686C43.9595 39.0424 43.2713 37.7058 42.4416 36.4698C41.1037 34.4239 39.861 32.2999 38.2611 30.4406C37.9475 30.0701 37.5783 29.73 37.1349 29.5249C36.7326 29.3184 36.2801 29.558 35.9704 29.82C35.0652 30.6338 34.5002 31.7309 33.8398 32.7353C33.0829 33.8827 32.4066 35.079 31.6748 36.2409C30.6664 37.7415 29.8354 39.3468 28.9434 40.9163C28.5213 41.6467 27.898 42.3203 27.0801 42.5956C26.662 42.7451 26.1406 42.6869 25.8441 42.3296C25.4021 41.8942 25.4683 41.2153 25.5464 40.6556C25.7409 39.7689 26.0717 38.9193 26.3377 38.0539C27.8265 33.3917 29.3722 28.6912 29.8314 23.7921C29.9399 22.7136 29.92 21.6271 29.887 20.5459C29.7096 18.504 29.0149 16.5534 28.2659 14.661C27.5155 12.8229 26.6911 11.0165 25.864 9.21145C25.2579 7.7915 24.5512 6.37816 24.3474 4.82852C24.2892 4.41828 24.19 3.77871 24.4665 3.60971Z" fill="#64B431"/>
<path d="M25.4498 44.7977C31.2288 43.9494 37.1204 43.9256 42.9167 44.6336C45.6639 45.0041 48.4059 45.4845 51.0778 46.2282C51.0381 47.046 50.9018 47.8572 50.9256 48.679C48.877 48.2212 46.8391 47.7024 44.7614 47.3901C38.5853 46.3738 32.2584 46.338 26.0598 47.1757C25.8415 46.387 25.6086 45.5996 25.4498 44.7977Z" fill="#64B431"/>
<path d="M17.4753 46.3923C17.7995 46.305 18.1304 46.2402 18.4652 46.2097C18.8555 46.9283 19.3227 47.6072 19.6416 48.3628C13.8731 49.8092 8.20656 51.834 3.05211 54.8313C2.48307 55.1609 1.6348 55.0206 1.33176 54.396C1.00092 53.8825 1.18751 53.1692 1.66789 52.8212C2.10459 52.5022 2.58497 52.2482 3.05741 51.9861C7.61634 49.5525 12.4863 47.7276 17.4753 46.3923Z" fill="#64B431"/>
<path d="M56.9164 48.0596C58.5349 48.5611 60.0792 49.281 61.6381 49.944C63.8508 50.9418 66.0092 52.0614 68.1146 53.2709C68.6095 53.5581 69.2394 53.8175 69.4022 54.4275C69.606 55.0614 69.1825 55.7734 68.5487 55.9401C68.0074 56.1519 67.5045 55.7509 67.0453 55.518C65.0537 54.3177 62.9588 53.2987 60.86 52.3022C59.0788 51.4659 57.2221 50.8095 55.4052 50.0605C55.9504 49.4266 56.4506 48.7543 56.9164 48.0596Z" fill="#64B431"/>
<path d="M13.324 15.2486C14.5177 15.0845 15.7801 15.4736 16.6085 16.3629C18.0364 17.7219 18.0907 20.1913 16.7872 21.651C15.5896 23.0709 13.3333 23.4004 11.7744 22.3947C10.8096 21.8111 10.1744 20.7709 9.98651 19.6699C9.6345 17.6174 11.2106 15.4167 13.324 15.2486Z" fill="#019FE3"/>
<path d="M22.4988 19.1273C23.0943 18.6006 23.658 17.9905 24.4136 17.698C24.6163 17.6196 24.8755 17.6005 24.9681 17.7748C25.2063 18.1299 24.714 19.8591 24.325 20.8251C23.2782 23.3037 22.0329 25.7043 21.1926 28.2663C20.7361 29.636 20.4661 31.0837 20.5429 32.5315C20.7506 37.4318 22.4763 42.0794 23.9372 46.7098C24.0735 47.2286 24.1715 47.8334 23.8843 48.3203C23.5892 48.7941 22.8891 48.7015 22.4577 48.4818C21.4229 47.9022 21.0338 46.7098 20.4582 45.7451C19.2446 43.7019 18.0139 41.6679 16.721 39.6736C16.3796 39.1945 16.0699 38.6533 15.5551 38.341C15.2322 38.198 14.8075 38.1875 14.5203 38.419C13.8798 38.8835 13.4391 39.5545 12.972 40.1804C11.5652 42.1112 10.3928 44.1981 9.04426 46.1673C8.63138 46.6609 7.87046 47.5744 7.50124 47.353C7.14261 47.1112 7.23392 46.5735 7.29083 46.1633C7.66004 42.0186 9.48362 38.2086 10.455 34.2015C10.6548 33.2262 10.889 32.0696 10.2234 31.2161C9.02971 29.5698 7.56609 28.1406 6.11569 26.7246C5.01334 25.6606 3.866 24.6403 2.66175 23.6915C1.77908 22.9517 0.852733 22.2265 0.188412 21.2724C0.0243162 21.058 -0.0696406 20.7766 0.0626918 20.5207C0.261194 20.2472 1.26429 20.3805 1.83333 20.5591C2.86819 20.8886 3.84747 21.3624 4.84131 21.7951C7.42316 22.9795 9.94282 24.4551 12.7788 24.9394C14.5481 25.2729 16.4603 24.8852 17.9213 23.8199C18.718 23.2535 19.3002 22.4555 19.9659 21.7515C20.8102 20.8767 21.5856 19.9345 22.4988 19.1273Z" fill="#019FE3"/>
<path d="M58.9783 16.9821C59.7683 16.9199 60.602 16.9159 61.3179 17.309C62.6082 17.9018 63.4829 19.2556 63.5068 20.6742C63.6669 22.7889 61.7255 24.8269 59.591 24.6787C58.4555 24.7435 57.3704 24.1493 56.6386 23.3117C55.4436 21.938 55.429 19.6963 56.628 18.32C57.2288 17.6332 58.0532 17.08 58.9783 16.9821Z" fill="#F99D04"/>
<path d="M69.6868 19.5877C69.9316 19.4302 70.3987 19.2546 70.5112 19.4712C70.6865 19.8088 70.4755 21.2194 70.1394 22.0253C69.0767 24.6455 67.7626 27.1625 66.8442 29.841C66.4551 31.0068 66.1243 32.219 66.1481 33.459C66.16 34.3258 66.1098 35.1979 66.25 36.0581C66.7886 40.0493 68.0564 43.8897 69.3109 47.7009C69.5518 48.4023 69.7212 49.1592 69.5611 49.8977C69.3705 50.2563 68.9219 50.5871 68.509 50.3899C67.7944 50.1782 67.2531 49.6039 66.8852 48.9779C65.8795 47.0975 64.7388 45.2964 63.6311 43.4768C62.8874 42.3678 62.2972 41.1344 61.3298 40.1949C61.0863 39.9011 60.6629 39.9368 60.3333 40.0241C59.8252 40.2875 59.4692 40.7507 59.1211 41.1887C58.7281 41.6876 58.306 42.1653 57.9659 42.7026C57.3452 43.7388 56.6624 44.7366 56.0325 45.7675C55.3377 46.8248 54.7528 47.9894 53.796 48.8429C53.5975 49.0467 53.1788 49.1401 53.0457 49.0362C52.7982 48.8429 52.8921 48 52.9318 47.4799C53.2428 44.5037 54.3386 41.6969 55.2001 38.8517C55.691 37.2729 56.3315 35.673 56.219 33.9883C56.2124 33.3148 55.7162 32.7987 55.3284 32.2984C54.2459 30.9155 52.9583 29.7139 51.7197 28.474C50.7682 27.5714 49.822 26.661 48.7871 25.8537C47.7681 25.0359 46.7756 24.1744 45.9181 23.1858C45.6839 22.9357 45.5198 22.4968 45.6058 22.2688C45.8506 21.8351 47.2666 22.196 48.0302 22.4858C49.245 22.8616 50.3487 23.5048 51.496 24.0394C53.7761 25.0875 56.0285 26.3434 58.5508 26.6954C60.598 27.0368 62.8093 26.395 64.2796 24.9128C65.1437 23.9706 65.951 22.9768 66.8654 22.0822C67.7626 21.2074 68.595 20.2308 69.6868 19.5877Z" fill="#F99D04"/>
</svg>
